<?xml version="1.0" encoding="UTF-8"?>
<svg xmlns="http://www.w3.org/2000/svg" xmlns:xlink="http://www.w3.org/1999/xlink" width="504pt" height="302pt" viewBox="0 0 504 302" version="1.1">
<g id="surface8">
<rect x="0" y="0" width="504" height="302" style="fill:rgb(100%,100%,100%);fill-opacity:1;stroke:none;"/>
<path style="fill-rule:nonzero;fill:rgb(0%,0%,0%);fill-opacity:1;stroke-width:0.75;stroke-linecap:round;stroke-linejoin:round;stroke:rgb(0%,0%,0%);stroke-opacity:1;stroke-miterlimit:10;" d="M 38.246094 145.5 C 38.246094 147.902344 34.644531 147.902344 34.644531 145.5 C 34.644531 143.101562 38.246094 143.101562 38.246094 145.5 "/>
<path style="fill-rule:nonzero;fill:rgb(0%,0%,0%);fill-opacity:1;stroke-width:0.75;stroke-linecap:round;stroke-linejoin:round;stroke:rgb(0%,0%,0%);stroke-opacity:1;stroke-miterlimit:10;" d="M 42.6875 82.097656 C 42.6875 84.5 39.089844 84.5 39.089844 82.097656 C 39.089844 79.699219 42.6875 79.699219 42.6875 82.097656 "/>
<path style="fill-rule:nonzero;fill:rgb(0%,0%,0%);fill-opacity:1;stroke-width:0.75;stroke-linecap:round;stroke-linejoin:round;stroke:rgb(0%,0%,0%);stroke-opacity:1;stroke-miterlimit:10;" d="M 47.132812 71.746094 C 47.132812 74.148438 43.535156 74.148438 43.535156 71.746094 C 43.535156 69.347656 47.132812 69.347656 47.132812 71.746094 "/>
<path style="fill-rule:nonzero;fill:rgb(0%,0%,0%);fill-opacity:1;stroke-width:0.75;stroke-linecap:round;stroke-linejoin:round;stroke:rgb(0%,0%,0%);stroke-opacity:1;stroke-miterlimit:10;" d="M 51.578125 162.320312 C 51.578125 164.722656 47.976562 164.722656 47.976562 162.320312 C 47.976562 159.921875 51.578125 159.921875 51.578125 162.320312 "/>
<path style="fill-rule:nonzero;fill:rgb(0%,0%,0%);fill-opacity:1;stroke-width:0.75;stroke-linecap:round;stroke-linejoin:round;stroke:rgb(0%,0%,0%);stroke-opacity:1;stroke-miterlimit:10;" d="M 56.023438 82.097656 C 56.023438 84.5 52.421875 84.5 52.421875 82.097656 C 52.421875 79.699219 56.023438 79.699219 56.023438 82.097656 "/>
<path style="fill-rule:nonzero;fill:rgb(0%,0%,0%);fill-opacity:1;stroke-width:0.75;stroke-linecap:round;stroke-linejoin:round;stroke:rgb(0%,0%,0%);stroke-opacity:1;stroke-miterlimit:10;" d="M 60.464844 69.804688 C 60.464844 72.207031 56.867188 72.207031 56.867188 69.804688 C 56.867188 67.40625 60.464844 67.40625 60.464844 69.804688 "/>
<path style="fill-rule:nonzero;fill:rgb(0%,0%,0%);fill-opacity:1;stroke-width:0.75;stroke-linecap:round;stroke-linejoin:round;stroke:rgb(0%,0%,0%);stroke-opacity:1;stroke-miterlimit:10;" d="M 64.910156 24.519531 C 64.910156 26.917969 61.3125 26.917969 61.3125 24.519531 C 61.3125 22.117188 64.910156 22.117188 64.910156 24.519531 "/>
<path style="fill-rule:nonzero;fill:rgb(0%,0%,0%);fill-opacity:1;stroke-width:0.75;stroke-linecap:round;stroke-linejoin:round;stroke:rgb(0%,0%,0%);stroke-opacity:1;stroke-miterlimit:10;" d="M 69.355469 47.808594 C 69.355469 50.210938 65.753906 50.210938 65.753906 47.808594 C 65.753906 45.410156 69.355469 45.410156 69.355469 47.808594 "/>
<path style="fill-rule:nonzero;fill:rgb(0%,0%,0%);fill-opacity:1;stroke-width:0.75;stroke-linecap:round;stroke-linejoin:round;stroke:rgb(0%,0%,0%);stroke-opacity:1;stroke-miterlimit:10;" d="M 73.800781 42.632812 C 73.800781 45.035156 70.199219 45.035156 70.199219 42.632812 C 70.199219 40.234375 73.800781 40.234375 73.800781 42.632812 "/>
<path style="fill-rule:nonzero;fill:rgb(0%,0%,0%);fill-opacity:1;stroke-width:0.75;stroke-linecap:round;stroke-linejoin:round;stroke:rgb(0%,0%,0%);stroke-opacity:1;stroke-miterlimit:10;" d="M 78.246094 53.632812 C 78.246094 56.03125 74.644531 56.03125 74.644531 53.632812 C 74.644531 51.230469 78.246094 51.230469 78.246094 53.632812 "/>
<path style="fill-rule:nonzero;fill:rgb(0%,0%,0%);fill-opacity:1;stroke-width:0.75;stroke-linecap:round;stroke-linejoin:round;stroke:rgb(0%,0%,0%);stroke-opacity:1;stroke-miterlimit:10;" d="M 82.6875 61.394531 C 82.6875 63.796875 79.089844 63.796875 79.089844 61.394531 C 79.089844 58.996094 82.6875 58.996094 82.6875 61.394531 "/>
<path style="fill-rule:nonzero;fill:rgb(0%,0%,0%);fill-opacity:1;stroke-width:0.75;stroke-linecap:round;stroke-linejoin:round;stroke:rgb(0%,0%,0%);stroke-opacity:1;stroke-miterlimit:10;" d="M 87.132812 74.980469 C 87.132812 77.382812 83.535156 77.382812 83.535156 74.980469 C 83.535156 72.582031 87.132812 72.582031 87.132812 74.980469 "/>
<path style="fill-rule:nonzero;fill:rgb(0%,0%,0%);fill-opacity:1;stroke-width:0.75;stroke-linecap:round;stroke-linejoin:round;stroke:rgb(0%,0%,0%);stroke-opacity:1;stroke-miterlimit:10;" d="M 91.578125 68.511719 C 91.578125 70.910156 87.976562 70.910156 87.976562 68.511719 C 87.976562 66.113281 91.578125 66.113281 91.578125 68.511719 "/>
<path style="fill-rule:nonzero;fill:rgb(0%,0%,0%);fill-opacity:1;stroke-width:0.75;stroke-linecap:round;stroke-linejoin:round;stroke:rgb(0%,0%,0%);stroke-opacity:1;stroke-miterlimit:10;" d="M 96.023438 60.101562 C 96.023438 62.5 92.421875 62.5 92.421875 60.101562 C 92.421875 57.703125 96.023438 57.703125 96.023438 60.101562 "/>
<path style="fill-rule:nonzero;fill:rgb(0%,0%,0%);fill-opacity:1;stroke-width:0.75;stroke-linecap:round;stroke-linejoin:round;stroke:rgb(0%,0%,0%);stroke-opacity:1;stroke-miterlimit:10;" d="M 100.464844 60.101562 C 100.464844 62.5 96.867188 62.5 96.867188 60.101562 C 96.867188 57.703125 100.464844 57.703125 100.464844 60.101562 "/>
<path style="fill-rule:nonzero;fill:rgb(0%,0%,0%);fill-opacity:1;stroke-width:0.75;stroke-linecap:round;stroke-linejoin:round;stroke:rgb(0%,0%,0%);stroke-opacity:1;stroke-miterlimit:10;" d="M 104.910156 57.515625 C 104.910156 59.914062 101.3125 59.914062 101.3125 57.515625 C 101.3125 55.113281 104.910156 55.113281 104.910156 57.515625 "/>
<path style="fill-rule:nonzero;fill:rgb(0%,0%,0%);fill-opacity:1;stroke-width:0.75;stroke-linecap:round;stroke-linejoin:round;stroke:rgb(0%,0%,0%);stroke-opacity:1;stroke-miterlimit:10;" d="M 109.355469 83.390625 C 109.355469 85.792969 105.753906 85.792969 105.753906 83.390625 C 105.753906 80.992188 109.355469 80.992188 109.355469 83.390625 "/>
<path style="fill-rule:nonzero;fill:rgb(0%,0%,0%);fill-opacity:1;stroke-width:0.75;stroke-linecap:round;stroke-linejoin:round;stroke:rgb(0%,0%,0%);stroke-opacity:1;stroke-miterlimit:10;" d="M 113.800781 73.039062 C 113.800781 75.441406 110.199219 75.441406 110.199219 73.039062 C 110.199219 70.640625 113.800781 70.640625 113.800781 73.039062 "/>
<path style="fill-rule:nonzero;fill:rgb(0%,0%,0%);fill-opacity:1;stroke-width:0.75;stroke-linecap:round;stroke-linejoin:round;stroke:rgb(0%,0%,0%);stroke-opacity:1;stroke-miterlimit:10;" d="M 118.246094 71.746094 C 118.246094 74.148438 114.644531 74.148438 114.644531 71.746094 C 114.644531 69.347656 118.246094 69.347656 118.246094 71.746094 "/>
<path style="fill-rule:nonzero;fill:rgb(0%,0%,0%);fill-opacity:1;stroke-width:0.75;stroke-linecap:round;stroke-linejoin:round;stroke:rgb(0%,0%,0%);stroke-opacity:1;stroke-miterlimit:10;" d="M 122.6875 98.917969 C 122.6875 101.320312 119.089844 101.320312 119.089844 98.917969 C 119.089844 96.519531 122.6875 96.519531 122.6875 98.917969 "/>
<path style="fill-rule:nonzero;fill:rgb(0%,0%,0%);fill-opacity:1;stroke-width:0.75;stroke-linecap:round;stroke-linejoin:round;stroke:rgb(0%,0%,0%);stroke-opacity:1;stroke-miterlimit:10;" d="M 127.132812 97.625 C 127.132812 100.027344 123.535156 100.027344 123.535156 97.625 C 123.535156 95.226562 127.132812 95.226562 127.132812 97.625 "/>
<path style="fill-rule:nonzero;fill:rgb(0%,0%,0%);fill-opacity:1;stroke-width:0.75;stroke-linecap:round;stroke-linejoin:round;stroke:rgb(0%,0%,0%);stroke-opacity:1;stroke-miterlimit:10;" d="M 131.578125 114.445312 C 131.578125 116.847656 127.976562 116.847656 127.976562 114.445312 C 127.976562 112.046875 131.578125 112.046875 131.578125 114.445312 "/>
<path style="fill-rule:nonzero;fill:rgb(0%,0%,0%);fill-opacity:1;stroke-width:0.75;stroke-linecap:round;stroke-linejoin:round;stroke:rgb(0%,0%,0%);stroke-opacity:1;stroke-miterlimit:10;" d="M 136.023438 107.976562 C 136.023438 110.375 132.421875 110.375 132.421875 107.976562 C 132.421875 105.578125 136.023438 105.578125 136.023438 107.976562 "/>
<path style="fill-rule:nonzero;fill:rgb(0%,0%,0%);fill-opacity:1;stroke-width:0.75;stroke-linecap:round;stroke-linejoin:round;stroke:rgb(0%,0%,0%);stroke-opacity:1;stroke-miterlimit:10;" d="M 140.464844 83.390625 C 140.464844 85.792969 136.867188 85.792969 136.867188 83.390625 C 136.867188 80.992188 140.464844 80.992188 140.464844 83.390625 "/>
<path style="fill-rule:nonzero;fill:rgb(0%,0%,0%);fill-opacity:1;stroke-width:0.75;stroke-linecap:round;stroke-linejoin:round;stroke:rgb(0%,0%,0%);stroke-opacity:1;stroke-miterlimit:10;" d="M 144.910156 84.6875 C 144.910156 87.085938 141.3125 87.085938 141.3125 84.6875 C 141.3125 82.285156 144.910156 82.285156 144.910156 84.6875 "/>
<path style="fill-rule:nonzero;fill:rgb(0%,0%,0%);fill-opacity:1;stroke-width:0.75;stroke-linecap:round;stroke-linejoin:round;stroke:rgb(0%,0%,0%);stroke-opacity:1;stroke-miterlimit:10;" d="M 149.355469 66.570312 C 149.355469 68.972656 145.753906 68.972656 145.753906 66.570312 C 145.753906 64.171875 149.355469 64.171875 149.355469 66.570312 "/>
<path style="fill-rule:nonzero;fill:rgb(0%,0%,0%);fill-opacity:1;stroke-width:0.75;stroke-linecap:round;stroke-linejoin:round;stroke:rgb(0%,0%,0%);stroke-opacity:1;stroke-miterlimit:10;" d="M 153.800781 56.21875 C 153.800781 58.621094 150.199219 58.621094 150.199219 56.21875 C 150.199219 53.820312 153.800781 53.820312 153.800781 56.21875 "/>
<path style="fill-rule:nonzero;fill:rgb(0%,0%,0%);fill-opacity:1;stroke-width:0.75;stroke-linecap:round;stroke-linejoin:round;stroke:rgb(0%,0%,0%);stroke-opacity:1;stroke-miterlimit:10;" d="M 158.246094 51.042969 C 158.246094 53.445312 154.644531 53.445312 154.644531 51.042969 C 154.644531 48.644531 158.246094 48.644531 158.246094 51.042969 "/>
<path style="fill-rule:nonzero;fill:rgb(0%,0%,0%);fill-opacity:1;stroke-width:0.75;stroke-linecap:round;stroke-linejoin:round;stroke:rgb(0%,0%,0%);stroke-opacity:1;stroke-miterlimit:10;" d="M 162.6875 31.636719 C 162.6875 34.035156 159.089844 34.035156 159.089844 31.636719 C 159.089844 29.234375 162.6875 29.234375 162.6875 31.636719 "/>
<path style="fill-rule:nonzero;fill:rgb(0%,0%,0%);fill-opacity:1;stroke-width:0.75;stroke-linecap:round;stroke-linejoin:round;stroke:rgb(0%,0%,0%);stroke-opacity:1;stroke-miterlimit:10;" d="M 167.132812 36.8125 C 167.132812 39.210938 163.535156 39.210938 163.535156 36.8125 C 163.535156 34.410156 167.132812 34.410156 167.132812 36.8125 "/>
<path style="fill-rule:nonzero;fill:rgb(0%,0%,0%);fill-opacity:1;stroke-width:0.75;stroke-linecap:round;stroke-linejoin:round;stroke:rgb(0%,0%,0%);stroke-opacity:1;stroke-miterlimit:10;" d="M 171.578125 44.574219 C 171.578125 46.972656 167.976562 46.972656 167.976562 44.574219 C 167.976562 42.175781 171.578125 42.175781 171.578125 44.574219 "/>
<path style="fill-rule:nonzero;fill:rgb(0%,0%,0%);fill-opacity:1;stroke-width:0.75;stroke-linecap:round;stroke-linejoin:round;stroke:rgb(0%,0%,0%);stroke-opacity:1;stroke-miterlimit:10;" d="M 176.023438 34.222656 C 176.023438 36.621094 172.421875 36.621094 172.421875 34.222656 C 172.421875 31.824219 176.023438 31.824219 176.023438 34.222656 "/>
<path style="fill-rule:nonzero;fill:rgb(0%,0%,0%);fill-opacity:1;stroke-width:0.75;stroke-linecap:round;stroke-linejoin:round;stroke:rgb(0%,0%,0%);stroke-opacity:1;stroke-miterlimit:10;" d="M 180.464844 32.929688 C 180.464844 35.328125 176.867188 35.328125 176.867188 32.929688 C 176.867188 30.527344 180.464844 30.527344 180.464844 32.929688 "/>
<path style="fill-rule:nonzero;fill:rgb(0%,0%,0%);fill-opacity:1;stroke-width:0.75;stroke-linecap:round;stroke-linejoin:round;stroke:rgb(0%,0%,0%);stroke-opacity:1;stroke-miterlimit:10;" d="M 184.910156 39.398438 C 184.910156 41.796875 181.3125 41.796875 181.3125 39.398438 C 181.3125 37 184.910156 37 184.910156 39.398438 "/>
<path style="fill-rule:nonzero;fill:rgb(0%,0%,0%);fill-opacity:1;stroke-width:0.75;stroke-linecap:round;stroke-linejoin:round;stroke:rgb(0%,0%,0%);stroke-opacity:1;stroke-miterlimit:10;" d="M 189.355469 60.101562 C 189.355469 62.5 185.753906 62.5 185.753906 60.101562 C 185.753906 57.703125 189.355469 57.703125 189.355469 60.101562 "/>
<path style="fill-rule:nonzero;fill:rgb(0%,0%,0%);fill-opacity:1;stroke-width:0.75;stroke-linecap:round;stroke-linejoin:round;stroke:rgb(0%,0%,0%);stroke-opacity:1;stroke-miterlimit:10;" d="M 193.800781 67.863281 C 193.800781 70.265625 190.199219 70.265625 190.199219 67.863281 C 190.199219 65.464844 193.800781 65.464844 193.800781 67.863281 "/>
<path style="fill-rule:nonzero;fill:rgb(0%,0%,0%);fill-opacity:1;stroke-width:0.75;stroke-linecap:round;stroke-linejoin:round;stroke:rgb(0%,0%,0%);stroke-opacity:1;stroke-miterlimit:10;" d="M 198.246094 69.160156 C 198.246094 71.558594 194.644531 71.558594 194.644531 69.160156 C 194.644531 66.757812 198.246094 66.757812 198.246094 69.160156 "/>
<path style="fill-rule:nonzero;fill:rgb(0%,0%,0%);fill-opacity:1;stroke-width:0.75;stroke-linecap:round;stroke-linejoin:round;stroke:rgb(0%,0%,0%);stroke-opacity:1;stroke-miterlimit:10;" d="M 202.6875 70.453125 C 202.6875 72.851562 199.089844 72.851562 199.089844 70.453125 C 199.089844 68.054688 202.6875 68.054688 202.6875 70.453125 "/>
<path style="fill-rule:nonzero;fill:rgb(0%,0%,0%);fill-opacity:1;stroke-width:0.75;stroke-linecap:round;stroke-linejoin:round;stroke:rgb(0%,0%,0%);stroke-opacity:1;stroke-miterlimit:10;" d="M 207.132812 78.214844 C 207.132812 80.617188 203.535156 80.617188 203.535156 78.214844 C 203.535156 75.816406 207.132812 75.816406 207.132812 78.214844 "/>
<path style="fill-rule:nonzero;fill:rgb(0%,0%,0%);fill-opacity:1;stroke-width:0.75;stroke-linecap:round;stroke-linejoin:round;stroke:rgb(0%,0%,0%);stroke-opacity:1;stroke-miterlimit:10;" d="M 211.578125 95.039062 C 211.578125 97.4375 207.976562 97.4375 207.976562 95.039062 C 207.976562 92.636719 211.578125 92.636719 211.578125 95.039062 "/>
<path style="fill-rule:nonzero;fill:rgb(0%,0%,0%);fill-opacity:1;stroke-width:0.75;stroke-linecap:round;stroke-linejoin:round;stroke:rgb(0%,0%,0%);stroke-opacity:1;stroke-miterlimit:10;" d="M 216.023438 92.449219 C 216.023438 94.851562 212.421875 94.851562 212.421875 92.449219 C 212.421875 90.050781 216.023438 90.050781 216.023438 92.449219 "/>
<path style="fill-rule:nonzero;fill:rgb(0%,0%,0%);fill-opacity:1;stroke-width:0.75;stroke-linecap:round;stroke-linejoin:round;stroke:rgb(0%,0%,0%);stroke-opacity:1;stroke-miterlimit:10;" d="M 220.464844 87.273438 C 220.464844 89.675781 216.867188 89.675781 216.867188 87.273438 C 216.867188 84.875 220.464844 84.875 220.464844 87.273438 "/>
<path style="fill-rule:nonzero;fill:rgb(0%,0%,0%);fill-opacity:1;stroke-width:0.75;stroke-linecap:round;stroke-linejoin:round;stroke:rgb(0%,0%,0%);stroke-opacity:1;stroke-miterlimit:10;" d="M 224.910156 91.15625 C 224.910156 93.554688 221.3125 93.554688 221.3125 91.15625 C 221.3125 88.753906 224.910156 88.753906 224.910156 91.15625 "/>
<path style="fill-rule:nonzero;fill:rgb(0%,0%,0%);fill-opacity:1;stroke-width:0.75;stroke-linecap:round;stroke-linejoin:round;stroke:rgb(0%,0%,0%);stroke-opacity:1;stroke-miterlimit:10;" d="M 229.355469 93.742188 C 229.355469 96.144531 225.753906 96.144531 225.753906 93.742188 C 225.753906 91.34375 229.355469 91.34375 229.355469 93.742188 "/>
<path style="fill-rule:nonzero;fill:rgb(0%,0%,0%);fill-opacity:1;stroke-width:0.75;stroke-linecap:round;stroke-linejoin:round;stroke:rgb(0%,0%,0%);stroke-opacity:1;stroke-miterlimit:10;" d="M 233.800781 93.742188 C 233.800781 96.144531 230.199219 96.144531 230.199219 93.742188 C 230.199219 91.34375 233.800781 91.34375 233.800781 93.742188 "/>
<path style="fill-rule:nonzero;fill:rgb(0%,0%,0%);fill-opacity:1;stroke-width:0.75;stroke-linecap:round;stroke-linejoin:round;stroke:rgb(0%,0%,0%);stroke-opacity:1;stroke-miterlimit:10;" d="M 238.246094 106.683594 C 238.246094 109.082031 234.644531 109.082031 234.644531 106.683594 C 234.644531 104.28125 238.246094 104.28125 238.246094 106.683594 "/>
<path style="fill-rule:nonzero;fill:rgb(0%,0%,0%);fill-opacity:1;stroke-width:0.75;stroke-linecap:round;stroke-linejoin:round;stroke:rgb(0%,0%,0%);stroke-opacity:1;stroke-miterlimit:10;" d="M 242.6875 109.269531 C 242.6875 111.671875 239.089844 111.671875 239.089844 109.269531 C 239.089844 106.871094 242.6875 106.871094 242.6875 109.269531 "/>
<path style="fill-rule:nonzero;fill:rgb(0%,0%,0%);fill-opacity:1;stroke-width:0.75;stroke-linecap:round;stroke-linejoin:round;stroke:rgb(0%,0%,0%);stroke-opacity:1;stroke-miterlimit:10;" d="M 247.132812 114.445312 C 247.132812 116.847656 243.535156 116.847656 243.535156 114.445312 C 243.535156 112.046875 247.132812 112.046875 247.132812 114.445312 "/>
<path style="fill-rule:nonzero;fill:rgb(0%,0%,0%);fill-opacity:1;stroke-width:0.75;stroke-linecap:round;stroke-linejoin:round;stroke:rgb(0%,0%,0%);stroke-opacity:1;stroke-miterlimit:10;" d="M 251.578125 122.210938 C 251.578125 124.609375 247.976562 124.609375 247.976562 122.210938 C 247.976562 119.808594 251.578125 119.808594 251.578125 122.210938 "/>
<path style="fill-rule:nonzero;fill:rgb(0%,0%,0%);fill-opacity:1;stroke-width:0.75;stroke-linecap:round;stroke-linejoin:round;stroke:rgb(0%,0%,0%);stroke-opacity:1;stroke-miterlimit:10;" d="M 256.023438 127.386719 C 256.023438 129.785156 252.421875 129.785156 252.421875 127.386719 C 252.421875 124.984375 256.023438 124.984375 256.023438 127.386719 "/>
<path style="fill-rule:nonzero;fill:rgb(0%,0%,0%);fill-opacity:1;stroke-width:0.75;stroke-linecap:round;stroke-linejoin:round;stroke:rgb(0%,0%,0%);stroke-opacity:1;stroke-miterlimit:10;" d="M 260.464844 131.269531 C 260.464844 133.667969 256.867188 133.667969 256.867188 131.269531 C 256.867188 128.867188 260.464844 128.867188 260.464844 131.269531 "/>
<path style="fill-rule:nonzero;fill:rgb(0%,0%,0%);fill-opacity:1;stroke-width:0.75;stroke-linecap:round;stroke-linejoin:round;stroke:rgb(0%,0%,0%);stroke-opacity:1;stroke-miterlimit:10;" d="M 264.910156 129.972656 C 264.910156 132.375 261.3125 132.375 261.3125 129.972656 C 261.3125 127.574219 264.910156 127.574219 264.910156 129.972656 "/>
<path style="fill-rule:nonzero;fill:rgb(0%,0%,0%);fill-opacity:1;stroke-width:0.75;stroke-linecap:round;stroke-linejoin:round;stroke:rgb(0%,0%,0%);stroke-opacity:1;stroke-miterlimit:10;" d="M 269.355469 131.269531 C 269.355469 133.667969 265.753906 133.667969 265.753906 131.269531 C 265.753906 128.867188 269.355469 128.867188 269.355469 131.269531 "/>
<path style="fill-rule:nonzero;fill:rgb(0%,0%,0%);fill-opacity:1;stroke-width:0.75;stroke-linecap:round;stroke-linejoin:round;stroke:rgb(0%,0%,0%);stroke-opacity:1;stroke-miterlimit:10;" d="M 273.800781 137.738281 C 273.800781 140.136719 270.199219 140.136719 270.199219 137.738281 C 270.199219 135.335938 273.800781 135.335938 273.800781 137.738281 "/>
<path style="fill-rule:nonzero;fill:rgb(0%,0%,0%);fill-opacity:1;stroke-width:0.75;stroke-linecap:round;stroke-linejoin:round;stroke:rgb(0%,0%,0%);stroke-opacity:1;stroke-miterlimit:10;" d="M 278.246094 140.324219 C 278.246094 142.726562 274.644531 142.726562 274.644531 140.324219 C 274.644531 137.925781 278.246094 137.925781 278.246094 140.324219 "/>
<path style="fill-rule:nonzero;fill:rgb(0%,0%,0%);fill-opacity:1;stroke-width:0.75;stroke-linecap:round;stroke-linejoin:round;stroke:rgb(0%,0%,0%);stroke-opacity:1;stroke-miterlimit:10;" d="M 282.6875 141.617188 C 282.6875 144.019531 279.089844 144.019531 279.089844 141.617188 C 279.089844 139.21875 282.6875 139.21875 282.6875 141.617188 "/>
<path style="fill-rule:nonzero;fill:rgb(0%,0%,0%);fill-opacity:1;stroke-width:0.75;stroke-linecap:round;stroke-linejoin:round;stroke:rgb(0%,0%,0%);stroke-opacity:1;stroke-miterlimit:10;" d="M 287.132812 142.914062 C 287.132812 145.3125 283.535156 145.3125 283.535156 142.914062 C 283.535156 140.511719 287.132812 140.511719 287.132812 142.914062 "/>
<path style="fill-rule:nonzero;fill:rgb(0%,0%,0%);fill-opacity:1;stroke-width:0.75;stroke-linecap:round;stroke-linejoin:round;stroke:rgb(0%,0%,0%);stroke-opacity:1;stroke-miterlimit:10;" d="M 291.578125 151.96875 C 291.578125 154.371094 287.976562 154.371094 287.976562 151.96875 C 287.976562 149.570312 291.578125 149.570312 291.578125 151.96875 "/>
<path style="fill-rule:nonzero;fill:rgb(0%,0%,0%);fill-opacity:1;stroke-width:0.75;stroke-linecap:round;stroke-linejoin:round;stroke:rgb(0%,0%,0%);stroke-opacity:1;stroke-miterlimit:10;" d="M 296.023438 157.144531 C 296.023438 159.546875 292.421875 159.546875 292.421875 157.144531 C 292.421875 154.746094 296.023438 154.746094 296.023438 157.144531 "/>
<path style="fill-rule:nonzero;fill:rgb(0%,0%,0%);fill-opacity:1;stroke-width:0.75;stroke-linecap:round;stroke-linejoin:round;stroke:rgb(0%,0%,0%);stroke-opacity:1;stroke-miterlimit:10;" d="M 300.464844 164.910156 C 300.464844 167.308594 296.867188 167.308594 296.867188 164.910156 C 296.867188 162.507812 300.464844 162.507812 300.464844 164.910156 "/>
<path style="fill-rule:nonzero;fill:rgb(0%,0%,0%);fill-opacity:1;stroke-width:0.75;stroke-linecap:round;stroke-linejoin:round;stroke:rgb(0%,0%,0%);stroke-opacity:1;stroke-miterlimit:10;" d="M 304.910156 168.792969 C 304.910156 171.191406 301.3125 171.191406 301.3125 168.792969 C 301.3125 166.390625 304.910156 166.390625 304.910156 168.792969 "/>
<path style="fill-rule:nonzero;fill:rgb(0%,0%,0%);fill-opacity:1;stroke-width:0.75;stroke-linecap:round;stroke-linejoin:round;stroke:rgb(0%,0%,0%);stroke-opacity:1;stroke-miterlimit:10;" d="M 309.355469 173.96875 C 309.355469 176.367188 305.753906 176.367188 305.753906 173.96875 C 305.753906 171.566406 309.355469 171.566406 309.355469 173.96875 "/>
<path style="fill-rule:nonzero;fill:rgb(0%,0%,0%);fill-opacity:1;stroke-width:0.75;stroke-linecap:round;stroke-linejoin:round;stroke:rgb(0%,0%,0%);stroke-opacity:1;stroke-miterlimit:10;" d="M 313.800781 180.4375 C 313.800781 182.835938 310.199219 182.835938 310.199219 180.4375 C 310.199219 178.035156 313.800781 178.035156 313.800781 180.4375 "/>
<path style="fill-rule:nonzero;fill:rgb(0%,0%,0%);fill-opacity:1;stroke-width:0.75;stroke-linecap:round;stroke-linejoin:round;stroke:rgb(0%,0%,0%);stroke-opacity:1;stroke-miterlimit:10;" d="M 318.246094 189.496094 C 318.246094 191.894531 314.644531 191.894531 314.644531 189.496094 C 314.644531 187.09375 318.246094 187.09375 318.246094 189.496094 "/>
<path style="fill-rule:nonzero;fill:rgb(0%,0%,0%);fill-opacity:1;stroke-width:0.75;stroke-linecap:round;stroke-linejoin:round;stroke:rgb(0%,0%,0%);stroke-opacity:1;stroke-miterlimit:10;" d="M 322.6875 197.257812 C 322.6875 199.65625 319.089844 199.65625 319.089844 197.257812 C 319.089844 194.859375 322.6875 194.859375 322.6875 197.257812 "/>
<path style="fill-rule:nonzero;fill:rgb(0%,0%,0%);fill-opacity:1;stroke-width:0.75;stroke-linecap:round;stroke-linejoin:round;stroke:rgb(0%,0%,0%);stroke-opacity:1;stroke-miterlimit:10;" d="M 327.132812 207.609375 C 327.132812 210.007812 323.535156 210.007812 323.535156 207.609375 C 323.535156 205.210938 327.132812 205.210938 327.132812 207.609375 "/>
<path style="fill-rule:nonzero;fill:rgb(0%,0%,0%);fill-opacity:1;stroke-width:0.75;stroke-linecap:round;stroke-linejoin:round;stroke:rgb(0%,0%,0%);stroke-opacity:1;stroke-miterlimit:10;" d="M 331.578125 206.316406 C 331.578125 208.714844 327.976562 208.714844 327.976562 206.316406 C 327.976562 203.914062 331.578125 203.914062 331.578125 206.316406 "/>
<path style="fill-rule:nonzero;fill:rgb(0%,0%,0%);fill-opacity:1;stroke-width:0.75;stroke-linecap:round;stroke-linejoin:round;stroke:rgb(0%,0%,0%);stroke-opacity:1;stroke-miterlimit:10;" d="M 336.023438 210.195312 C 336.023438 212.597656 332.421875 212.597656 332.421875 210.195312 C 332.421875 207.796875 336.023438 207.796875 336.023438 210.195312 "/>
<path style="fill-rule:nonzero;fill:rgb(0%,0%,0%);fill-opacity:1;stroke-width:0.75;stroke-linecap:round;stroke-linejoin:round;stroke:rgb(0%,0%,0%);stroke-opacity:1;stroke-miterlimit:10;" d="M 340.464844 216.667969 C 340.464844 219.066406 336.867188 219.066406 336.867188 216.667969 C 336.867188 214.265625 340.464844 214.265625 340.464844 216.667969 "/>
<path style="fill-rule:nonzero;fill:rgb(0%,0%,0%);fill-opacity:1;stroke-width:0.75;stroke-linecap:round;stroke-linejoin:round;stroke:rgb(0%,0%,0%);stroke-opacity:1;stroke-miterlimit:10;" d="M 344.910156 219.253906 C 344.910156 221.65625 341.3125 221.65625 341.3125 219.253906 C 341.3125 216.855469 344.910156 216.855469 344.910156 219.253906 "/>
<path style="fill-rule:nonzero;fill:rgb(0%,0%,0%);fill-opacity:1;stroke-width:0.75;stroke-linecap:round;stroke-linejoin:round;stroke:rgb(0%,0%,0%);stroke-opacity:1;stroke-miterlimit:10;" d="M 349.355469 219.253906 C 349.355469 221.65625 345.753906 221.65625 345.753906 219.253906 C 345.753906 216.855469 349.355469 216.855469 349.355469 219.253906 "/>
<path style="fill-rule:nonzero;fill:rgb(0%,0%,0%);fill-opacity:1;stroke-width:0.75;stroke-linecap:round;stroke-linejoin:round;stroke:rgb(0%,0%,0%);stroke-opacity:1;stroke-miterlimit:10;" d="M 353.800781 223.136719 C 353.800781 225.535156 350.199219 225.535156 350.199219 223.136719 C 350.199219 220.738281 353.800781 220.738281 353.800781 223.136719 "/>
<path style="fill-rule:nonzero;fill:rgb(0%,0%,0%);fill-opacity:1;stroke-width:0.75;stroke-linecap:round;stroke-linejoin:round;stroke:rgb(0%,0%,0%);stroke-opacity:1;stroke-miterlimit:10;" d="M 358.246094 227.019531 C 358.246094 229.417969 354.644531 229.417969 354.644531 227.019531 C 354.644531 224.617188 358.246094 224.617188 358.246094 227.019531 "/>
<path style="fill-rule:nonzero;fill:rgb(0%,0%,0%);fill-opacity:1;stroke-width:0.75;stroke-linecap:round;stroke-linejoin:round;stroke:rgb(0%,0%,0%);stroke-opacity:1;stroke-miterlimit:10;" d="M 362.6875 230.898438 C 362.6875 233.300781 359.089844 233.300781 359.089844 230.898438 C 359.089844 228.5 362.6875 228.5 362.6875 230.898438 "/>
<path style="fill-rule:nonzero;fill:rgb(0%,0%,0%);fill-opacity:1;stroke-width:0.75;stroke-linecap:round;stroke-linejoin:round;stroke:rgb(0%,0%,0%);stroke-opacity:1;stroke-miterlimit:10;" d="M 367.132812 239.957031 C 367.132812 242.359375 363.535156 242.359375 363.535156 239.957031 C 363.535156 237.558594 367.132812 237.558594 367.132812 239.957031 "/>
<path style="fill-rule:nonzero;fill:rgb(0%,0%,0%);fill-opacity:1;stroke-width:0.75;stroke-linecap:round;stroke-linejoin:round;stroke:rgb(0%,0%,0%);stroke-opacity:1;stroke-miterlimit:10;" d="M 371.578125 241.25 C 371.578125 243.652344 367.976562 243.652344 367.976562 241.25 C 367.976562 238.851562 371.578125 238.851562 371.578125 241.25 "/>
<path style="fill-rule:nonzero;fill:rgb(0%,0%,0%);fill-opacity:1;stroke-width:0.75;stroke-linecap:round;stroke-linejoin:round;stroke:rgb(0%,0%,0%);stroke-opacity:1;stroke-miterlimit:10;" d="M 376.023438 241.25 C 376.023438 243.652344 372.421875 243.652344 372.421875 241.25 C 372.421875 238.851562 376.023438 238.851562 376.023438 241.25 "/>
<path style="fill-rule:nonzero;fill:rgb(0%,0%,0%);fill-opacity:1;stroke-width:0.75;stroke-linecap:round;stroke-linejoin:round;stroke:rgb(0%,0%,0%);stroke-opacity:1;stroke-miterlimit:10;" d="M 380.464844 242.546875 C 380.464844 244.945312 376.867188 244.945312 376.867188 242.546875 C 376.867188 240.144531 380.464844 240.144531 380.464844 242.546875 "/>
<path style="fill-rule:nonzero;fill:rgb(0%,0%,0%);fill-opacity:1;stroke-width:0.75;stroke-linecap:round;stroke-linejoin:round;stroke:rgb(0%,0%,0%);stroke-opacity:1;stroke-miterlimit:10;" d="M 384.910156 242.546875 C 384.910156 244.945312 381.3125 244.945312 381.3125 242.546875 C 381.3125 240.144531 384.910156 240.144531 384.910156 242.546875 "/>
<path style="fill-rule:nonzero;fill:rgb(0%,0%,0%);fill-opacity:1;stroke-width:0.75;stroke-linecap:round;stroke-linejoin:round;stroke:rgb(0%,0%,0%);stroke-opacity:1;stroke-miterlimit:10;" d="M 389.355469 241.25 C 389.355469 243.652344 385.753906 243.652344 385.753906 241.25 C 385.753906 238.851562 389.355469 238.851562 389.355469 241.25 "/>
<path style="fill-rule:nonzero;fill:rgb(0%,0%,0%);fill-opacity:1;stroke-width:0.75;stroke-linecap:round;stroke-linejoin:round;stroke:rgb(0%,0%,0%);stroke-opacity:1;stroke-miterlimit:10;" d="M 393.800781 238.664062 C 393.800781 241.0625 390.199219 241.0625 390.199219 238.664062 C 390.199219 236.261719 393.800781 236.261719 393.800781 238.664062 "/>
<path style="fill-rule:nonzero;fill:rgb(0%,0%,0%);fill-opacity:1;stroke-width:0.75;stroke-linecap:round;stroke-linejoin:round;stroke:rgb(0%,0%,0%);stroke-opacity:1;stroke-miterlimit:10;" d="M 398.246094 242.546875 C 398.246094 244.945312 394.644531 244.945312 394.644531 242.546875 C 394.644531 240.144531 398.246094 240.144531 398.246094 242.546875 "/>
<path style="fill-rule:nonzero;fill:rgb(0%,0%,0%);fill-opacity:1;stroke-width:0.75;stroke-linecap:round;stroke-linejoin:round;stroke:rgb(0%,0%,0%);stroke-opacity:1;stroke-miterlimit:10;" d="M 402.6875 243.839844 C 402.6875 246.238281 399.089844 246.238281 399.089844 243.839844 C 399.089844 241.4375 402.6875 241.4375 402.6875 243.839844 "/>
<path style="fill-rule:nonzero;fill:rgb(0%,0%,0%);fill-opacity:1;stroke-width:0.75;stroke-linecap:round;stroke-linejoin:round;stroke:rgb(0%,0%,0%);stroke-opacity:1;stroke-miterlimit:10;" d="M 407.132812 245.132812 C 407.132812 247.535156 403.535156 247.535156 403.535156 245.132812 C 403.535156 242.734375 407.132812 242.734375 407.132812 245.132812 "/>
<path style="fill-rule:nonzero;fill:rgb(0%,0%,0%);fill-opacity:1;stroke-width:0.75;stroke-linecap:round;stroke-linejoin:round;stroke:rgb(0%,0%,0%);stroke-opacity:1;stroke-miterlimit:10;" d="M 411.578125 249.015625 C 411.578125 251.414062 407.976562 251.414062 407.976562 249.015625 C 407.976562 246.613281 411.578125 246.613281 411.578125 249.015625 "/>
<path style="fill-rule:nonzero;fill:rgb(0%,0%,0%);fill-opacity:1;stroke-width:0.75;stroke-linecap:round;stroke-linejoin:round;stroke:rgb(0%,0%,0%);stroke-opacity:1;stroke-miterlimit:10;" d="M 416.023438 251.601562 C 416.023438 254.003906 412.421875 254.003906 412.421875 251.601562 C 412.421875 249.203125 416.023438 249.203125 416.023438 251.601562 "/>
<path style="fill-rule:nonzero;fill:rgb(0%,0%,0%);fill-opacity:1;stroke-width:0.75;stroke-linecap:round;stroke-linejoin:round;stroke:rgb(0%,0%,0%);stroke-opacity:1;stroke-miterlimit:10;" d="M 420.464844 249.015625 C 420.464844 251.414062 416.867188 251.414062 416.867188 249.015625 C 416.867188 246.613281 420.464844 246.613281 420.464844 249.015625 "/>
<path style="fill-rule:nonzero;fill:rgb(0%,0%,0%);fill-opacity:1;stroke-width:0.75;stroke-linecap:round;stroke-linejoin:round;stroke:rgb(0%,0%,0%);stroke-opacity:1;stroke-miterlimit:10;" d="M 424.910156 251.601562 C 424.910156 254.003906 421.3125 254.003906 421.3125 251.601562 C 421.3125 249.203125 424.910156 249.203125 424.910156 251.601562 "/>
<path style="fill-rule:nonzero;fill:rgb(0%,0%,0%);fill-opacity:1;stroke-width:0.75;stroke-linecap:round;stroke-linejoin:round;stroke:rgb(0%,0%,0%);stroke-opacity:1;stroke-miterlimit:10;" d="M 429.355469 254.191406 C 429.355469 256.589844 425.753906 256.589844 425.753906 254.191406 C 425.753906 251.789062 429.355469 251.789062 429.355469 254.191406 "/>
<path style="fill-rule:nonzero;fill:rgb(0%,0%,0%);fill-opacity:1;stroke-width:0.75;stroke-linecap:round;stroke-linejoin:round;stroke:rgb(0%,0%,0%);stroke-opacity:1;stroke-miterlimit:10;" d="M 433.800781 254.191406 C 433.800781 256.589844 430.199219 256.589844 430.199219 254.191406 C 430.199219 251.789062 433.800781 251.789062 433.800781 254.191406 "/>
<path style="fill-rule:nonzero;fill:rgb(0%,0%,0%);fill-opacity:1;stroke-width:0.75;stroke-linecap:round;stroke-linejoin:round;stroke:rgb(0%,0%,0%);stroke-opacity:1;stroke-miterlimit:10;" d="M 438.246094 254.191406 C 438.246094 256.589844 434.644531 256.589844 434.644531 254.191406 C 434.644531 251.789062 438.246094 251.789062 438.246094 254.191406 "/>
<path style="fill-rule:nonzero;fill:rgb(0%,0%,0%);fill-opacity:1;stroke-width:0.75;stroke-linecap:round;stroke-linejoin:round;stroke:rgb(0%,0%,0%);stroke-opacity:1;stroke-miterlimit:10;" d="M 442.6875 256.777344 C 442.6875 259.179688 439.089844 259.179688 439.089844 256.777344 C 439.089844 254.378906 442.6875 254.378906 442.6875 256.777344 "/>
<path style="fill-rule:nonzero;fill:rgb(0%,0%,0%);fill-opacity:1;stroke-width:0.75;stroke-linecap:round;stroke-linejoin:round;stroke:rgb(0%,0%,0%);stroke-opacity:1;stroke-miterlimit:10;" d="M 447.132812 261.953125 C 447.132812 264.355469 443.535156 264.355469 443.535156 261.953125 C 443.535156 259.554688 447.132812 259.554688 447.132812 261.953125 "/>
<path style="fill-rule:nonzero;fill:rgb(0%,0%,0%);fill-opacity:1;stroke-width:0.75;stroke-linecap:round;stroke-linejoin:round;stroke:rgb(0%,0%,0%);stroke-opacity:1;stroke-miterlimit:10;" d="M 451.578125 264.542969 C 451.578125 266.941406 447.976562 266.941406 447.976562 264.542969 C 447.976562 262.140625 451.578125 262.140625 451.578125 264.542969 "/>
<path style="fill-rule:nonzero;fill:rgb(0%,0%,0%);fill-opacity:1;stroke-width:0.75;stroke-linecap:round;stroke-linejoin:round;stroke:rgb(0%,0%,0%);stroke-opacity:1;stroke-miterlimit:10;" d="M 456.023438 267.128906 C 456.023438 269.53125 452.421875 269.53125 452.421875 267.128906 C 452.421875 264.730469 456.023438 264.730469 456.023438 267.128906 "/>
<path style="fill-rule:nonzero;fill:rgb(0%,0%,0%);fill-opacity:1;stroke-width:0.75;stroke-linecap:round;stroke-linejoin:round;stroke:rgb(0%,0%,0%);stroke-opacity:1;stroke-miterlimit:10;" d="M 460.464844 269.71875 C 460.464844 272.117188 456.867188 272.117188 456.867188 269.71875 C 456.867188 267.316406 460.464844 267.316406 460.464844 269.71875 "/>
<path style="fill-rule:nonzero;fill:rgb(0%,0%,0%);fill-opacity:1;stroke-width:0.75;stroke-linecap:round;stroke-linejoin:round;stroke:rgb(0%,0%,0%);stroke-opacity:1;stroke-miterlimit:10;" d="M 464.910156 271.011719 C 464.910156 273.410156 461.3125 273.410156 461.3125 271.011719 C 461.3125 268.613281 464.910156 268.613281 464.910156 271.011719 "/>
<path style="fill-rule:nonzero;fill:rgb(0%,0%,0%);fill-opacity:1;stroke-width:0.75;stroke-linecap:round;stroke-linejoin:round;stroke:rgb(0%,0%,0%);stroke-opacity:1;stroke-miterlimit:10;" d="M 469.355469 274.894531 C 469.355469 277.292969 465.753906 277.292969 465.753906 274.894531 C 465.753906 272.492188 469.355469 272.492188 469.355469 274.894531 "/>
<path style="fill-rule:nonzero;fill:rgb(0%,0%,0%);fill-opacity:1;stroke-width:0.75;stroke-linecap:round;stroke-linejoin:round;stroke:rgb(0%,0%,0%);stroke-opacity:1;stroke-miterlimit:10;" d="M 473.800781 277.480469 C 473.800781 279.882812 470.199219 279.882812 470.199219 277.480469 C 470.199219 275.082031 473.800781 275.082031 473.800781 277.480469 "/>
<path style="fill:none;stroke-width:0.75;stroke-linecap:round;stroke-linejoin:round;stroke:rgb(0%,0%,0%);stroke-opacity:1;stroke-miterlimit:10;" d="M 449.53125 287.601562 L 75.757812 287.601562 "/>
<path style="fill:none;stroke-width:0.75;stroke-linecap:round;stroke-linejoin:round;stroke:rgb(0%,0%,0%);stroke-opacity:1;stroke-miterlimit:10;" d="M 449.53125 287.601562 L 449.53125 294.800781 "/>
<path style="fill:none;stroke-width:0.75;stroke-linecap:round;stroke-linejoin:round;stroke:rgb(0%,0%,0%);stroke-opacity:1;stroke-miterlimit:10;" d="M 361.984375 287.601562 L 361.984375 294.800781 "/>
<path style="fill:none;stroke-width:0.75;stroke-linecap:round;stroke-linejoin:round;stroke:rgb(0%,0%,0%);stroke-opacity:1;stroke-miterlimit:10;" d="M 295.757812 287.601562 L 295.757812 294.800781 "/>
<path style="fill:none;stroke-width:0.75;stroke-linecap:round;stroke-linejoin:round;stroke:rgb(0%,0%,0%);stroke-opacity:1;stroke-miterlimit:10;" d="M 229.53125 287.601562 L 229.53125 294.800781 "/>
<path style="fill:none;stroke-width:0.75;stroke-linecap:round;stroke-linejoin:round;stroke:rgb(0%,0%,0%);stroke-opacity:1;stroke-miterlimit:10;" d="M 141.984375 287.601562 L 141.984375 294.800781 "/>
<path style="fill:none;stroke-width:0.75;stroke-linecap:round;stroke-linejoin:round;stroke:rgb(0%,0%,0%);stroke-opacity:1;stroke-miterlimit:10;" d="M 75.757812 287.601562 L 75.757812 294.800781 "/>
<path style="fill:none;stroke-width:0.75;stroke-linecap:round;stroke-linejoin:round;stroke:rgb(0%,0%,0%);stroke-opacity:1;stroke-miterlimit:10;" d="M 14.398438 260.867188 L 14.398438 36.964844 "/>
<path style="fill:none;stroke-width:0.75;stroke-linecap:round;stroke-linejoin:round;stroke:rgb(0%,0%,0%);stroke-opacity:1;stroke-miterlimit:10;" d="M 14.398438 260.867188 L 7.199219 260.867188 "/>
<path style="fill:none;stroke-width:0.75;stroke-linecap:round;stroke-linejoin:round;stroke:rgb(0%,0%,0%);stroke-opacity:1;stroke-miterlimit:10;" d="M 14.398438 223.550781 L 7.199219 223.550781 "/>
<path style="fill:none;stroke-width:0.75;stroke-linecap:round;stroke-linejoin:round;stroke:rgb(0%,0%,0%);stroke-opacity:1;stroke-miterlimit:10;" d="M 14.398438 186.234375 L 7.199219 186.234375 "/>
<path style="fill:none;stroke-width:0.75;stroke-linecap:round;stroke-linejoin:round;stroke:rgb(0%,0%,0%);stroke-opacity:1;stroke-miterlimit:10;" d="M 14.398438 148.917969 L 7.199219 148.917969 "/>
<path style="fill:none;stroke-width:0.75;stroke-linecap:round;stroke-linejoin:round;stroke:rgb(0%,0%,0%);stroke-opacity:1;stroke-miterlimit:10;" d="M 14.398438 111.601562 L 7.199219 111.601562 "/>
<path style="fill:none;stroke-width:0.75;stroke-linecap:round;stroke-linejoin:round;stroke:rgb(0%,0%,0%);stroke-opacity:1;stroke-miterlimit:10;" d="M 14.398438 74.28125 L 7.199219 74.28125 "/>
<path style="fill:none;stroke-width:0.75;stroke-linecap:round;stroke-linejoin:round;stroke:rgb(0%,0%,0%);stroke-opacity:1;stroke-miterlimit:10;" d="M 14.398438 36.964844 L 7.199219 36.964844 "/>
<path style="fill:none;stroke-width:0.75;stroke-linecap:round;stroke-linejoin:round;stroke:rgb(0%,0%,0%);stroke-opacity:1;stroke-miterlimit:10;" d="M 14.398438 287.601562 L 489.601562 287.601562 L 489.601562 14.398438 L 14.398438 14.398438 L 14.398438 287.601562 "/>
</g>
</svg>
